<?xml version="1.0" encoding="UTF-8" standalone="no"?>
<svg
   width="500"
   height="350"
   viewBox="0 0 2000 1400"
   version="1.1"
   id="svg133"
   sodipodi:docname="figure.svg"
   inkscape:version="1.1.2 (b8e25be833, 2022-02-05)"
   xmlns:inkscape="http://www.inkscape.org/namespaces/inkscape"
   xmlns:sodipodi="http://sodipodi.sourceforge.net/DTD/sodipodi-0.dtd"
   xmlns="http://www.w3.org/2000/svg"
   xmlns:svg="http://www.w3.org/2000/svg">
  <sodipodi:namedview
     id="namedview135"
     pagecolor="#505050"
     bordercolor="#eeeeee"
     borderopacity="1"
     inkscape:pageshadow="0"
     inkscape:pageopacity="0"
     inkscape:pagecheckerboard="0"
     showgrid="false"
     inkscape:zoom="1.8457143"
     inkscape:cx="250.0387"
     inkscape:cy="175.2709"
     inkscape:window-width="3840"
     inkscape:window-height="2050"
     inkscape:window-x="-12"
     inkscape:window-y="-12"
     inkscape:window-maximized="1"
     inkscape:current-layer="svg133" />
  <defs
     id="defs5">
    <clipPath
       id="clip530">
      <rect
         x="0"
         y="0"
         width="2000"
         height="1400"
         id="rect2" />
    </clipPath>
  </defs>
  <path
     clip-path="url(#clip530)"
     d="M0 1400 L2000 1400 L2000 0 L0 0  Z"
     fill="#ffffff"
     fill-rule="evenodd"
     fill-opacity="1"
     id="path7" />
  <defs
     id="defs12">
    <clipPath
       id="clip531">
      <rect
         x="400"
         y="0"
         width="1401"
         height="1400"
         id="rect9" />
    </clipPath>
  </defs>
  <path
     clip-path="url(#clip530)"
     d="M237.477 1219.24 L1952.76 1219.24 L1952.76 47.2441 L237.477 47.2441  Z"
     fill="#ffffff"
     fill-rule="evenodd"
     fill-opacity="1"
     id="path14" />
  <defs
     id="defs19">
    <clipPath
       id="clip532">
      <rect
         x="237"
         y="47"
         width="1716"
         height="1173"
         id="rect16" />
    </clipPath>
  </defs>
  <polyline
     clip-path="url(#clip530)"
     style="stroke:#000000; stroke-linecap:round; stroke-linejoin:round; stroke-width:4; stroke-opacity:1; fill:none"
     points="237.477,1219.24 1952.76,1219.24 "
     id="polyline21" />
  <polyline
     clip-path="url(#clip530)"
     style="stroke:#000000; stroke-linecap:round; stroke-linejoin:round; stroke-width:4; stroke-opacity:1; fill:none"
     points="237.477,47.2441 1952.76,47.2441 "
     id="polyline23" />
  <polyline
     clip-path="url(#clip530)"
     style="stroke:#000000; stroke-linecap:round; stroke-linejoin:round; stroke-width:4; stroke-opacity:1; fill:none"
     points="237.477,1219.24 237.477,1238.13 "
     id="polyline25" />
  <polyline
     clip-path="url(#clip530)"
     style="stroke:#000000; stroke-linecap:round; stroke-linejoin:round; stroke-width:4; stroke-opacity:1; fill:none"
     points="580.532,1219.24 580.532,1238.13 "
     id="polyline27" />
  <polyline
     clip-path="url(#clip530)"
     style="stroke:#000000; stroke-linecap:round; stroke-linejoin:round; stroke-width:4; stroke-opacity:1; fill:none"
     points="923.588,1219.24 923.588,1238.13 "
     id="polyline29" />
  <polyline
     clip-path="url(#clip530)"
     style="stroke:#000000; stroke-linecap:round; stroke-linejoin:round; stroke-width:4; stroke-opacity:1; fill:none"
     points="1266.64,1219.24 1266.64,1238.13 "
     id="polyline31" />
  <polyline
     clip-path="url(#clip530)"
     style="stroke:#000000; stroke-linecap:round; stroke-linejoin:round; stroke-width:4; stroke-opacity:1; fill:none"
     points="1609.7,1219.24 1609.7,1238.13 "
     id="polyline33" />
  <polyline
     clip-path="url(#clip530)"
     style="stroke:#000000; stroke-linecap:round; stroke-linejoin:round; stroke-width:4; stroke-opacity:1; fill:none"
     points="1952.76,1219.24 1952.76,1238.13 "
     id="polyline35" />
  <g
     clip-path="url(#clip530)"
     id="g39">
    <text
       style="fill:#000000; fill-opacity:1; font-family:Arial,Helvetica Neue,Helvetica,sans-serif; font-size:53px; text-anchor:middle;"
       transform="rotate(0, 237.477, 1291.03)"
       x="237.477"
       y="1291.03"
       id="text37">0</text>
  </g>
  <g
     clip-path="url(#clip530)"
     id="g43">
    <text
       style="fill:#000000; fill-opacity:1; font-family:Arial,Helvetica Neue,Helvetica,sans-serif; font-size:53px; text-anchor:middle;"
       transform="rotate(0, 580.532, 1291.03)"
       x="580.532"
       y="1291.03"
       id="text41">20</text>
  </g>
  <g
     clip-path="url(#clip530)"
     id="g47">
    <text
       style="fill:#000000; fill-opacity:1; font-family:Arial,Helvetica Neue,Helvetica,sans-serif; font-size:53px; text-anchor:middle;"
       transform="rotate(0, 923.588, 1291.03)"
       x="923.588"
       y="1291.03"
       id="text45">40</text>
  </g>
  <g
     clip-path="url(#clip530)"
     id="g51">
    <text
       style="fill:#000000; fill-opacity:1; font-family:Arial,Helvetica Neue,Helvetica,sans-serif; font-size:53px; text-anchor:middle;"
       transform="rotate(0, 1266.64, 1291.03)"
       x="1266.64"
       y="1291.03"
       id="text49">60</text>
  </g>
  <g
     clip-path="url(#clip530)"
     id="g55">
    <text
       style="fill:#000000; fill-opacity:1; font-family:Arial,Helvetica Neue,Helvetica,sans-serif; font-size:53px; text-anchor:middle;"
       transform="rotate(0, 1609.7, 1291.03)"
       x="1609.7"
       y="1291.03"
       id="text53">80</text>
  </g>
  <g
     clip-path="url(#clip530)"
     id="g59">
    <text
       style="fill:#000000; fill-opacity:1; font-family:Arial,Helvetica Neue,Helvetica,sans-serif; font-size:53px; text-anchor:middle;"
       transform="rotate(0, 1952.76, 1291.03)"
       x="1952.76"
       y="1291.03"
       id="text57">100</text>
  </g>
  <g
     clip-path="url(#clip530)"
     id="g63">
    <text
       style="fill:#000000; fill-opacity:1; font-family:Arial,Helvetica Neue,Helvetica,sans-serif; font-size:66px; text-anchor:middle;"
       transform="rotate(0, 1095.12, 1365.38)"
       x="1095.12"
       y="1365.38"
       id="text61">Time</text>
  </g>
  <polyline
     clip-path="url(#clip530)"
     style="stroke:#000000; stroke-linecap:round; stroke-linejoin:round; stroke-width:4; stroke-opacity:1; fill:none"
     points="237.477,1219.24 237.477,47.2441 "
     id="polyline65" />
  <polyline
     clip-path="url(#clip530)"
     style="stroke:#000000; stroke-linecap:round; stroke-linejoin:round; stroke-width:4; stroke-opacity:1; fill:none"
     points="1952.76,1219.24 1952.76,47.2441 "
     id="polyline67" />
  <polyline
     clip-path="url(#clip530)"
     style="stroke:#000000; stroke-linecap:round; stroke-linejoin:round; stroke-width:4; stroke-opacity:1; fill:none"
     points="237.477,1186.07 218.579,1186.07 "
     id="polyline69" />
  <polyline
     clip-path="url(#clip530)"
     style="stroke:#000000; stroke-linecap:round; stroke-linejoin:round; stroke-width:4; stroke-opacity:1; fill:none"
     points="237.477,817.515 218.579,817.515 "
     id="polyline71" />
  <polyline
     clip-path="url(#clip530)"
     style="stroke:#000000; stroke-linecap:round; stroke-linejoin:round; stroke-width:4; stroke-opacity:1; fill:none"
     points="237.477,448.964 218.579,448.964 "
     id="polyline73" />
  <polyline
     clip-path="url(#clip530)"
     style="stroke:#000000; stroke-linecap:round; stroke-linejoin:round; stroke-width:4; stroke-opacity:1; fill:none"
     points="237.477,80.4137 218.579,80.4137 "
     id="polyline75" />
  <g
     clip-path="url(#clip530)"
     id="g79">
    <text
       style="fill:#000000; fill-opacity:1; font-family:Arial,Helvetica Neue,Helvetica,sans-serif; font-size:53px; text-anchor:middle;"
       transform="rotate(0, 177.423, 1205.57)"
       x="177.423"
       y="1205.57"
       id="text77">0</text>
  </g>
  <g
     clip-path="url(#clip530)"
     id="g83">
    <text
       style="fill:#000000; fill-opacity:1; font-family:Arial,Helvetica Neue,Helvetica,sans-serif; font-size:53px; text-anchor:middle;"
       transform="rotate(0, 147.315, 837.015)"
       x="147.315"
       y="837.015"
       id="text81">100</text>
  </g>
  <g
     clip-path="url(#clip530)"
     id="g87">
    <text
       style="fill:#000000; fill-opacity:1; font-family:Arial,Helvetica Neue,Helvetica,sans-serif; font-size:53px; text-anchor:middle;"
       transform="rotate(0, 147.315, 468.464)"
       x="147.315"
       y="468.464"
       id="text85">200</text>
  </g>
  <g
     clip-path="url(#clip530)"
     id="g91">
    <text
       style="fill:#000000; fill-opacity:1; font-family:Arial,Helvetica Neue,Helvetica,sans-serif; font-size:53px; text-anchor:middle;"
       transform="rotate(0, 147.315, 99.9137)"
       x="147.315"
       y="99.9137"
       id="text89">300</text>
  </g>
  <g
     clip-path="url(#clip530)"
     id="g95">
    <text
       style="fill:#000000; fill-opacity:1; font-family:Arial,Helvetica Neue,Helvetica,sans-serif; font-size:66px; text-anchor:middle;"
       transform="rotate(-90, 75.5915, 633.24)"
       x="75.5915"
       y="633.24"
       id="text93">Population</text>
  </g>
  <polyline
     clip-path="url(#clip532)"
     style="stroke:#009af9; stroke-linecap:round; stroke-linejoin:round; stroke-width:8; stroke-opacity:1; fill:none"
     points="237.477,80.4137 239.194,91.2642 240.911,101.698 242.628,111.74 244.345,121.412 246.062,130.737 247.779,139.734 249.496,148.421 251.213,156.815 252.93,164.933 254.646,172.789 256.363,180.398 258.08,187.771 259.797,194.923 261.514,201.863 263.231,208.603 264.948,215.153 266.665,221.522 268.382,227.719 270.099,233.753 271.816,239.632 273.533,245.362 275.25,250.951 276.967,256.405 278.684,261.732 280.401,266.936 282.118,272.023 283.835,276.999 285.552,281.869 287.269,286.637 288.986,291.307 290.703,295.885 292.42,300.373 294.137,304.777 295.854,309.099 297.571,313.343 299.288,317.513 301.005,321.611 302.722,325.641 304.439,329.604 306.156,333.504 307.873,337.344 309.59,341.126 311.307,344.852 313.024,348.524 314.741,352.145 316.458,355.717 318.175,359.241 319.892,362.719 321.609,366.154 323.326,369.546 325.043,372.898 326.76,376.21 328.477,379.485 330.194,382.723 331.911,385.926 333.628,389.096 335.345,392.233 337.062,395.339 338.779,398.414 340.496,401.461 342.213,404.479 343.93,407.47 345.647,410.435 347.364,413.375 349.081,416.291 350.798,419.182 352.515,422.051 354.232,424.898 355.949,427.724 357.666,430.528 359.383,433.313 361.1,436.078 362.817,438.825 364.534,441.553 366.251,444.264 367.968,446.958 369.685,449.635 371.402,452.296 373.119,454.942 374.836,457.573 376.553,460.189 378.27,462.791 379.987,465.379 381.704,467.953 383.421,470.515 385.138,473.064 386.855,475.6 388.572,478.125 390.289,480.638 392.006,483.139 393.723,485.629 395.44,488.109 397.157,490.578 398.874,493.036 400.591,495.485 402.308,497.923 404.025,500.352 405.742,502.772 407.459,505.183 409.176,507.585 410.893,509.978 412.61,512.363 414.327,514.739 416.044,517.108 417.761,519.468 419.478,521.82 421.195,524.165 422.912,526.503 424.629,528.833 426.346,531.156 428.063,533.471 429.78,535.78 431.497,538.082 433.214,540.377 434.931,542.665 436.648,544.947 438.365,547.223 440.082,549.492 441.799,551.755 443.516,554.012 445.233,556.263 446.95,558.508 448.667,560.748 450.384,562.981 452.101,565.209 453.818,567.431 455.535,569.648 457.252,571.86 458.969,574.065 460.686,576.266 462.403,578.462 464.12,580.652 465.837,582.837 467.554,585.017 469.271,587.192 470.988,589.362 472.705,591.527 474.422,593.687 476.139,595.843 477.856,597.993 479.573,600.139 481.29,602.28 483.007,604.416 484.724,606.548 486.441,608.675 488.158,610.798 489.875,612.916 491.592,615.029 493.309,617.138 495.026,619.242 496.743,621.342 498.46,623.438 500.177,625.529 501.894,627.615 503.611,629.698 505.328,631.776 507.045,633.85 508.762,635.919 510.479,637.984 512.196,640.045 513.913,642.102 515.63,644.155 517.347,646.203 519.064,648.248 520.781,650.288 522.498,652.324 524.215,654.356 525.932,656.383 527.649,658.407 529.366,660.426 531.083,662.442 532.8,664.453 534.517,666.46 536.234,668.464 537.951,670.463 539.668,672.458 541.385,674.449 543.102,676.436 544.819,678.419 546.536,680.397 548.253,682.372 549.97,684.343 551.687,686.31 553.404,688.273 555.121,690.231 556.838,692.186 558.555,694.137 560.272,696.083 561.989,698.026 563.706,699.965 565.423,701.899 567.14,703.83 568.857,705.757 570.574,707.679 572.291,709.598 574.008,711.513 575.725,713.424 577.442,715.33 579.159,717.233 580.876,719.132 582.593,721.027 584.31,722.917 586.027,724.804 587.744,726.687 589.461,728.566 591.178,730.441 592.895,732.312 594.612,734.179 596.329,736.042 598.046,737.901 599.763,739.756 601.48,741.607 603.197,743.454 604.914,745.296 606.631,747.135 608.348,748.97 610.065,750.801 611.782,752.628 613.499,754.451 615.216,756.27 616.933,758.084 618.65,759.895 620.367,761.702 622.084,763.504 623.801,765.303 625.518,767.097 627.235,768.888 628.952,770.674 630.669,772.456 632.386,774.234 634.103,776.009 635.82,777.779 637.537,779.545 639.254,781.306 640.971,783.064 642.688,784.818 644.405,786.568 646.122,788.313 647.839,790.054 649.556,791.792 651.273,793.525 652.99,795.254 654.707,796.979 656.424,798.7 658.141,800.416 659.858,802.129 661.575,803.837 663.292,805.542 665.009,807.242 666.726,808.938 668.443,810.63 670.16,812.317 671.877,814.001 673.594,815.68 675.311,817.356 677.028,819.027 678.745,820.694 680.462,822.356 682.179,824.015 683.896,825.669 685.613,827.32 687.33,828.965 689.047,830.607 690.764,832.245 692.481,833.878 694.198,835.507 695.915,837.132 697.632,838.753 699.349,840.369 701.066,841.982 702.783,843.589 704.5,845.193 706.217,846.793 707.934,848.388 709.651,849.979 711.368,851.565 713.085,853.148 714.802,854.726 716.519,856.299 718.236,857.869 719.953,859.434 721.67,860.995 723.387,862.552 725.104,864.104 726.821,865.652 728.537,867.196 730.254,868.735 731.971,870.27 733.688,871.801 735.405,873.327 737.122,874.849 738.839,876.367 740.556,877.88 742.273,879.389 743.99,880.894 745.707,882.394 747.424,883.89 749.141,885.382 750.858,886.869 752.575,888.352 754.292,889.831 756.009,891.305 757.726,892.775 759.443,894.241 761.16,895.702 762.877,897.159 764.594,898.611 766.311,900.059 768.028,901.503 769.745,902.942 771.462,904.377 773.179,905.808 774.896,907.234 776.613,908.656 778.33,910.073 780.047,911.486 781.764,912.895 783.481,914.299 785.198,915.699 786.915,917.095 788.632,918.486 790.349,919.872 792.066,921.255 793.783,922.633 795.5,924.006 797.217,925.375 798.934,926.739 800.651,928.1 802.368,929.455 804.085,930.807 805.802,932.153 807.519,933.496 809.236,934.834 810.953,936.167 812.67,937.496 814.387,938.821 816.104,940.141 817.821,941.457 819.538,942.768 821.255,944.075 822.972,945.377 824.689,946.675 826.406,947.969 828.123,949.258 829.84,950.542 831.557,951.822 833.274,953.098 834.991,954.369 836.708,955.636 838.425,956.898 840.142,958.156 841.859,959.41 843.576,960.658 845.293,961.903 847.01,963.143 848.727,964.379 850.444,965.61 852.161,966.836 853.878,968.059 855.595,969.277 857.312,970.49 859.029,971.699 860.746,972.903 862.463,974.103 864.18,975.299 865.897,976.49 867.614,977.677 869.331,978.859 871.048,980.037 872.765,981.21 874.482,982.379 876.199,983.544 877.916,984.704 879.633,985.86 881.35,987.011 883.067,988.158 884.784,989.301 886.501,990.439 888.218,991.573 889.935,992.702 891.652,993.827 893.369,994.948 895.086,996.064 896.803,997.175 898.52,998.283 900.237,999.386 901.954,1000.48 903.671,1001.58 905.388,1002.67 907.105,1003.75 908.822,1004.83 910.539,1005.91 912.256,1006.98 913.973,1008.05 915.69,1009.11 917.407,1010.17 919.124,1011.23 920.841,1012.28 922.558,1013.32 924.275,1014.37 925.992,1015.4 927.709,1016.44 929.426,1017.46 931.143,1018.49 932.86,1019.51 934.577,1020.52 936.294,1021.53 938.011,1022.54 939.728,1023.54 941.445,1024.54 943.162,1025.54 944.879,1026.52 946.596,1027.51 948.313,1028.49 950.03,1029.47 951.747,1030.44 953.464,1031.41 955.181,1032.37 956.898,1033.33 958.615,1034.29 960.332,1035.24 962.049,1036.18 963.766,1037.13 965.483,1038.06 967.2,1039 968.917,1039.93 970.634,1040.85 972.351,1041.77 974.068,1042.69 975.785,1043.6 977.502,1044.51 979.219,1045.42 980.936,1046.32 982.653,1047.21 984.37,1048.1 986.087,1048.99 987.804,1049.87 989.521,1050.75 991.238,1051.63 992.955,1052.5 994.672,1053.37 996.389,1054.23 998.106,1055.09 999.823,1055.94 1001.54,1056.79 1003.26,1057.64 1004.97,1058.48 1006.69,1059.32 1008.41,1060.15 1010.12,1060.98 1011.84,1061.81 1013.56,1062.63 1015.28,1063.45 1016.99,1064.26 1018.71,1065.07 1020.43,1065.88 1022.14,1066.68 1023.86,1067.48 1025.58,1068.27 1027.29,1069.06 1029.01,1069.85 1030.73,1070.63 1032.45,1071.41 1034.16,1072.18 1035.88,1072.95 1037.6,1073.72 1039.31,1074.48 1041.03,1075.24 1042.75,1075.99 1044.46,1076.74 1046.18,1077.49 1047.9,1078.23 1049.62,1078.97 1051.33,1079.71 1053.05,1080.44 1054.77,1081.16 1056.48,1081.89 1058.2,1082.61 1059.92,1083.32 1061.63,1084.03 1063.35,1084.74 1065.07,1085.45 1066.79,1086.15 1068.5,1086.84 1070.22,1087.54 1071.94,1088.22 1073.65,1088.91 1075.37,1089.59 1077.09,1090.27 1078.8,1090.94 1080.52,1091.61 1082.24,1092.28 1083.96,1092.94 1085.67,1093.6 1087.39,1094.26 1089.11,1094.91 1090.82,1095.56 1092.54,1096.2 1094.26,1096.84 1095.97,1097.48 1097.69,1098.12 1099.41,1098.75 1101.13,1099.37 1102.84,1100 1104.56,1100.62 1106.28,1101.23 1107.99,1101.84 1109.71,1102.45 1111.43,1103.06 1113.14,1103.66 1114.86,1104.26 1116.58,1104.85 1118.3,1105.45 1120.01,1106.03 1121.73,1106.62 1123.45,1107.2 1125.16,1107.78 1126.88,1108.35 1128.6,1108.92 1130.31,1109.49 1132.03,1110.06 1133.75,1110.62 1135.47,1111.17 1137.18,1111.73 1138.9,1112.28 1140.62,1112.83 1142.33,1113.37 1144.05,1113.91 1145.77,1114.45 1147.48,1114.99 1149.2,1115.52 1150.92,1116.05 1152.64,1116.57 1154.35,1117.09 1156.07,1117.61 1157.79,1118.13 1159.5,1118.64 1161.22,1119.15 1162.94,1119.65 1164.65,1120.16 1166.37,1120.66 1168.09,1121.15 1169.81,1121.65 1171.52,1122.14 1173.24,1122.62 1174.96,1123.11 1176.67,1123.59 1178.39,1124.07 1180.11,1124.54 1181.82,1125.01 1183.54,1125.48 1185.26,1125.95 1186.98,1126.41 1188.69,1126.87 1190.41,1127.33 1192.13,1127.78 1193.84,1128.23 1195.56,1128.68 1197.28,1129.13 1198.99,1129.57 1200.71,1130.01 1202.43,1130.45 1204.15,1130.88 1205.86,1131.31 1207.58,1131.74 1209.3,1132.17 1211.01,1132.59 1212.73,1133.01 1214.45,1133.42 1216.16,1133.84 1217.88,1134.25 1219.6,1134.66 1221.32,1135.06 1223.03,1135.47 1224.75,1135.87 1226.47,1136.27 1228.18,1136.66 1229.9,1137.05 1231.62,1137.44 1233.33,1137.83 1235.05,1138.21 1236.77,1138.6 1238.49,1138.98 1240.2,1139.35 1241.92,1139.73 1243.64,1140.1 1245.35,1140.47 1247.07,1140.83 1248.79,1141.2 1250.5,1141.56 1252.22,1141.92 1253.94,1142.27 1255.66,1142.63 1257.37,1142.98 1259.09,1143.33 1260.81,1143.67 1262.52,1144.02 1264.24,1144.36 1265.96,1144.7 1267.67,1145.04 1269.39,1145.37 1271.11,1145.7 1272.83,1146.03 1274.54,1146.36 1276.26,1146.68 1277.98,1147.01 1279.69,1147.33 1281.41,1147.65 1283.13,1147.96 1284.84,1148.28 1286.56,1148.59 1288.28,1148.9 1290,1149.2 1291.71,1149.51 1293.43,1149.81 1295.15,1150.11 1296.86,1150.41 1298.58,1150.71 1300.3,1151 1302.01,1151.29 1303.73,1151.58 1305.45,1151.87 1307.17,1152.15 1308.88,1152.44 1310.6,1152.72 1312.32,1153 1314.03,1153.27 1315.75,1153.55 1317.47,1153.82 1319.18,1154.09 1320.9,1154.36 1322.62,1154.63 1324.34,1154.89 1326.05,1155.16 1327.77,1155.42 1329.49,1155.68 1331.2,1155.93 1332.92,1156.19 1334.64,1156.44 1336.35,1156.69 1338.07,1156.94 1339.79,1157.19 1341.51,1157.44 1343.22,1157.68 1344.94,1157.92 1346.66,1158.16 1348.37,1158.4 1350.09,1158.64 1351.81,1158.87 1353.52,1159.1 1355.24,1159.33 1356.96,1159.56 1358.68,1159.79 1360.39,1160.02 1362.11,1160.24 1363.83,1160.46 1365.54,1160.68 1367.26,1160.9 1368.98,1161.12 1370.69,1161.33 1372.41,1161.55 1374.13,1161.76 1375.85,1161.97 1377.56,1162.18 1379.28,1162.38 1381,1162.59 1382.71,1162.79 1384.43,1163 1386.15,1163.2 1387.86,1163.4 1389.58,1163.59 1391.3,1163.79 1393.02,1163.98 1394.73,1164.17 1396.45,1164.37 1398.17,1164.56 1399.88,1164.74 1401.6,1164.93 1403.32,1165.12 1405.03,1165.3 1406.75,1165.48 1408.47,1165.66 1410.19,1165.84 1411.9,1166.02 1413.62,1166.2 1415.34,1166.37 1417.05,1166.54 1418.77,1166.72 1420.49,1166.89 1422.2,1167.06 1423.92,1167.22 1425.64,1167.39 1427.36,1167.56 1429.07,1167.72 1430.79,1167.88 1432.51,1168.04 1434.22,1168.2 1435.94,1168.36 1437.66,1168.52 1439.37,1168.68 1441.09,1168.83 1442.81,1168.99 1444.52,1169.14 1446.24,1169.29 1447.96,1169.44 1449.68,1169.59 1451.39,1169.74 1453.11,1169.88 1454.83,1170.03 1456.54,1170.17 1458.26,1170.31 1459.98,1170.45 1461.69,1170.59 1463.41,1170.73 1465.13,1170.87 1466.85,1171.01 1468.56,1171.14 1470.28,1171.28 1472,1171.41 1473.71,1171.54 1475.43,1171.67 1477.15,1171.8 1478.86,1171.93 1480.58,1172.06 1482.3,1172.19 1484.02,1172.31 1485.73,1172.44 1487.45,1172.56 1489.17,1172.68 1490.88,1172.81 1492.6,1172.93 1494.32,1173.05 1496.03,1173.16 1497.75,1173.28 1499.47,1173.4 1501.19,1173.51 1502.9,1173.63 1504.62,1173.74 1506.34,1173.85 1508.05,1173.96 1509.77,1174.07 1511.49,1174.18 1513.2,1174.29 1514.92,1174.4 1516.64,1174.51 1518.36,1174.61 1520.07,1174.72 1521.79,1174.82 1523.51,1174.92 1525.22,1175.03 1526.94,1175.13 1528.66,1175.23 1530.37,1175.33 1532.09,1175.43 1533.81,1175.52 1535.53,1175.62 1537.24,1175.72 1538.96,1175.81 1540.68,1175.91 1542.39,1176 1544.11,1176.09 1545.83,1176.18 1547.54,1176.28 1549.26,1176.37 1550.98,1176.46 1552.7,1176.54 1554.41,1176.63 1556.13,1176.72 1557.85,1176.81 1559.56,1176.89 1561.28,1176.98 1563,1177.06 1564.71,1177.14 1566.43,1177.23 1568.15,1177.31 1569.87,1177.39 1571.58,1177.47 1573.3,1177.55 1575.02,1177.63 1576.73,1177.71 1578.45,1177.79 1580.17,1177.86 1581.88,1177.94 1583.6,1178.02 1585.32,1178.09 1587.04,1178.17 1588.75,1178.24 1590.47,1178.31 1592.19,1178.39 1593.9,1178.46 1595.62,1178.53 1597.34,1178.6 1599.05,1178.67 1600.77,1178.74 1602.49,1178.81 1604.21,1178.87 1605.92,1178.94 1607.64,1179.01 1609.36,1179.08 1611.07,1179.14 1612.79,1179.21 1614.51,1179.27 1616.22,1179.33 1617.94,1179.4 1619.66,1179.46 1621.38,1179.52 1623.09,1179.58 1624.81,1179.65 1626.53,1179.71 1628.24,1179.77 1629.96,1179.82 1631.68,1179.88 1633.39,1179.94 1635.11,1180 1636.83,1180.06 1638.55,1180.11 1640.26,1180.17 1641.98,1180.23 1643.7,1180.28 1645.41,1180.34 1647.13,1180.39 1648.85,1180.44 1650.56,1180.5 1652.28,1180.55 1654,1180.6 1655.72,1180.65 1657.43,1180.7 1659.15,1180.76 1660.87,1180.81 1662.58,1180.86 1664.3,1180.9 1666.02,1180.95 1667.73,1181 1669.45,1181.05 1671.17,1181.1 1672.89,1181.15 1674.6,1181.19 1676.32,1181.24 1678.04,1181.28 1679.75,1181.33 1681.47,1181.37 1683.19,1181.42 1684.9,1181.46 1686.62,1181.51 1688.34,1181.55 1690.06,1181.59 1691.77,1181.64 1693.49,1181.68 1695.21,1181.72 1696.92,1181.76 1698.64,1181.8 1700.36,1181.84 1702.07,1181.88 1703.79,1181.92 1705.51,1181.96 1707.23,1182 1708.94,1182.04 1710.66,1182.08 1712.38,1182.12 1714.09,1182.15 1715.81,1182.19 1717.53,1182.23 1719.24,1182.27 1720.96,1182.3 1722.68,1182.34 1724.4,1182.37 1726.11,1182.41 1727.83,1182.44 1729.55,1182.48 1731.26,1182.51 1732.98,1182.55 1734.7,1182.58 1736.41,1182.62 1738.13,1182.65 1739.85,1182.68 1741.57,1182.71 1743.28,1182.75 1745,1182.78 1746.72,1182.81 1748.43,1182.84 1750.15,1182.87 1751.87,1182.9 1753.58,1182.93 1755.3,1182.96 1757.02,1182.99 1758.74,1183.02 1760.45,1183.05 1762.17,1183.08 1763.89,1183.11 1765.6,1183.14 1767.32,1183.17 1769.04,1183.19 1770.75,1183.22 1772.47,1183.25 1774.19,1183.28 1775.91,1183.3 1777.62,1183.33 1779.34,1183.36 1781.06,1183.38 1782.77,1183.41 1784.49,1183.43 1786.21,1183.46 1787.92,1183.49 1789.64,1183.51 1791.36,1183.53 1793.08,1183.56 1794.79,1183.58 1796.51,1183.61 1798.23,1183.63 1799.94,1183.65 1801.66,1183.68 1803.38,1183.7 1805.09,1183.72 1806.81,1183.75 1808.53,1183.77 1810.25,1183.79 1811.96,1183.81 1813.68,1183.84 1815.4,1183.86 1817.11,1183.88 1818.83,1183.9 1820.55,1183.92 1822.26,1183.94 1823.98,1183.96 1825.7,1183.98 1827.42,1184 1829.13,1184.02 1830.85,1184.04 1832.57,1184.06 1834.28,1184.08 1836,1184.1 1837.72,1184.12 1839.43,1184.14 1841.15,1184.16 1842.87,1184.18 1844.59,1184.19 1846.3,1184.21 1848.02,1184.23 1849.74,1184.25 1851.45,1184.27 1853.17,1184.28 1854.89,1184.3 1856.6,1184.32 1858.32,1184.33 1860.04,1184.35 1861.76,1184.37 1863.47,1184.38 1865.19,1184.4 1866.91,1184.42 1868.62,1184.43 1870.34,1184.45 1872.06,1184.46 1873.77,1184.48 1875.49,1184.5 1877.21,1184.51 1878.93,1184.53 1880.64,1184.54 1882.36,1184.56 1884.08,1184.57 1885.79,1184.59 1887.51,1184.6 1889.23,1184.61 1890.94,1184.63 1892.66,1184.64 1894.38,1184.66 1896.1,1184.67 1897.81,1184.68 1899.53,1184.7 1901.25,1184.71 1902.96,1184.72 1904.68,1184.74 1906.4,1184.75 1908.11,1184.76 1909.83,1184.78 1911.55,1184.79 1913.26,1184.8 1914.98,1184.81 1916.7,1184.82 1918.42,1184.84 1920.13,1184.85 1921.85,1184.86 1923.57,1184.87 1925.28,1184.88 1927,1184.9 1928.72,1184.91 1930.43,1184.92 1932.15,1184.93 1933.87,1184.94 1935.59,1184.95 1937.3,1184.96 1939.02,1184.97 1940.74,1184.98 1942.45,1184.99 1944.17,1185.01 1945.89,1185.02 1947.6,1185.03 1949.32,1185.04 1951.04,1185.05 1952.76,1185.06 "
     id="polyline97" />
  <polyline
     clip-path="url(#clip532)"
     style="stroke:#e26f46; stroke-linecap:round; stroke-linejoin:round; stroke-width:8; stroke-opacity:1; fill:none"
     points="237.477,817.515 239.194,828.311 240.911,838.585 242.628,848.366 244.345,857.683 246.062,866.561 247.779,875.024 249.496,883.095 251.213,890.794 252.93,898.141 254.646,905.155 256.363,911.852 258.08,918.25 259.797,924.362 261.514,930.203 263.231,935.787 264.948,941.126 266.665,946.232 268.382,951.116 270.099,955.789 271.816,960.261 273.533,964.54 275.25,968.637 276.967,972.559 278.684,976.315 280.401,979.911 282.118,983.356 283.835,986.655 285.552,989.815 287.269,992.843 288.986,995.744 290.703,998.523 292.42,1001.19 294.137,1003.74 295.854,1006.18 297.571,1008.53 299.288,1010.78 301.005,1012.93 302.722,1014.99 304.439,1016.97 306.156,1018.86 307.873,1020.68 309.59,1022.42 311.307,1024.08 313.024,1025.68 314.741,1027.21 316.458,1028.67 318.175,1030.08 319.892,1031.42 321.609,1032.71 323.326,1033.94 325.043,1035.12 326.76,1036.25 328.477,1037.33 330.194,1038.36 331.911,1039.35 333.628,1040.29 335.345,1041.19 337.062,1042.06 338.779,1042.88 340.496,1043.67 342.213,1044.42 343.93,1045.13 345.647,1045.82 347.364,1046.47 349.081,1047.09 350.798,1047.68 352.515,1048.24 354.232,1048.78 355.949,1049.28 357.666,1049.77 359.383,1050.22 361.1,1050.66 362.817,1051.07 364.534,1051.46 366.251,1051.82 367.968,1052.17 369.685,1052.5 371.402,1052.81 373.119,1053.09 374.836,1053.37 376.553,1053.62 378.27,1053.86 379.987,1054.08 381.704,1054.28 383.421,1054.47 385.138,1054.65 386.855,1054.81 388.572,1054.96 390.289,1055.1 392.006,1055.22 393.723,1055.33 395.44,1055.43 397.157,1055.51 398.874,1055.59 400.591,1055.65 402.308,1055.71 404.025,1055.75 405.742,1055.79 407.459,1055.81 409.176,1055.83 410.893,1055.84 412.61,1055.84 414.327,1055.83 416.044,1055.81 417.761,1055.79 419.478,1055.75 421.195,1055.71 422.912,1055.67 424.629,1055.61 426.346,1055.55 428.063,1055.49 429.78,1055.41 431.497,1055.33 433.214,1055.25 434.931,1055.16 436.648,1055.06 438.365,1054.96 440.082,1054.85 441.799,1054.74 443.516,1054.62 445.233,1054.5 446.95,1054.38 448.667,1054.25 450.384,1054.11 452.101,1053.97 453.818,1053.83 455.535,1053.68 457.252,1053.53 458.969,1053.37 460.686,1053.21 462.403,1053.05 464.12,1052.88 465.837,1052.71 467.554,1052.54 469.271,1052.36 470.988,1052.18 472.705,1052 474.422,1051.81 476.139,1051.62 477.856,1051.43 479.573,1051.24 481.29,1051.04 483.007,1050.84 484.724,1050.64 486.441,1050.43 488.158,1050.22 489.875,1050.01 491.592,1049.8 493.309,1049.58 495.026,1049.37 496.743,1049.15 498.46,1048.92 500.177,1048.7 501.894,1048.47 503.611,1048.25 505.328,1048.02 507.045,1047.78 508.762,1047.55 510.479,1047.31 512.196,1047.07 513.913,1046.83 515.63,1046.59 517.347,1046.35 519.064,1046.1 520.781,1045.86 522.498,1045.61 524.215,1045.36 525.932,1045.11 527.649,1044.85 529.366,1044.6 531.083,1044.34 532.8,1044.08 534.517,1043.83 536.234,1043.56 537.951,1043.3 539.668,1043.04 541.385,1042.77 543.102,1042.51 544.819,1042.24 546.536,1041.97 548.253,1041.7 549.97,1041.43 551.687,1041.15 553.404,1040.88 555.121,1040.6 556.838,1040.33 558.555,1040.05 560.272,1039.77 561.989,1039.49 563.706,1039.21 565.423,1038.92 567.14,1038.64 568.857,1038.35 570.574,1038.07 572.291,1037.78 574.008,1037.49 575.725,1037.2 577.442,1036.91 579.159,1036.62 580.876,1036.32 582.593,1036.03 584.31,1035.74 586.027,1035.44 587.744,1035.14 589.461,1034.84 591.178,1034.55 592.895,1034.25 594.612,1033.94 596.329,1033.64 598.046,1033.34 599.763,1033.04 601.48,1032.73 603.197,1032.43 604.914,1032.12 606.631,1031.81 608.348,1031.5 610.065,1031.19 611.782,1030.88 613.499,1030.57 615.216,1030.26 616.933,1029.95 618.65,1029.63 620.367,1029.32 622.084,1029 623.801,1028.68 625.518,1028.37 627.235,1028.05 628.952,1027.73 630.669,1027.41 632.386,1027.09 634.103,1026.76 635.82,1026.44 637.537,1026.12 639.254,1025.79 640.971,1025.47 642.688,1025.14 644.405,1024.81 646.122,1024.49 647.839,1024.16 649.556,1023.83 651.273,1023.5 652.99,1023.17 654.707,1022.83 656.424,1022.5 658.141,1022.17 659.858,1021.83 661.575,1021.5 663.292,1021.16 665.009,1020.82 666.726,1020.49 668.443,1020.15 670.16,1019.81 671.877,1019.47 673.594,1019.13 675.311,1018.79 677.028,1018.45 678.745,1018.1 680.462,1017.76 682.179,1017.42 683.896,1017.07 685.613,1016.73 687.33,1016.38 689.047,1016.03 690.764,1015.69 692.481,1015.34 694.198,1014.99 695.915,1014.64 697.632,1014.29 699.349,1013.94 701.066,1013.58 702.783,1013.23 704.5,1012.88 706.217,1012.52 707.934,1012.17 709.651,1011.81 711.368,1011.46 713.085,1011.1 714.802,1010.74 716.519,1010.38 718.236,1010.02 719.953,1009.66 721.67,1009.3 723.387,1008.94 725.104,1008.58 726.821,1008.22 728.537,1007.85 730.254,1007.49 731.971,1007.12 733.688,1006.76 735.405,1006.39 737.122,1006.02 738.839,1005.66 740.556,1005.29 742.273,1004.92 743.99,1004.55 745.707,1004.18 747.424,1003.81 749.141,1003.44 750.858,1003.07 752.575,1002.69 754.292,1002.32 756.009,1001.95 757.726,1001.57 759.443,1001.2 761.16,1000.82 762.877,1000.45 764.594,1000.07 766.311,999.691 768.028,999.313 769.745,998.934 771.462,998.555 773.179,998.175 774.896,997.795 776.613,997.414 778.33,997.033 780.047,996.651 781.764,996.269 783.481,995.886 785.198,995.502 786.915,995.118 788.632,994.733 790.349,994.348 792.066,993.962 793.783,993.576 795.5,993.189 797.217,992.802 798.934,992.414 800.651,992.025 802.368,991.636 804.085,991.247 805.802,990.857 807.519,990.466 809.236,990.075 810.953,989.683 812.67,989.291 814.387,988.898 816.104,988.505 817.821,988.111 819.538,987.717 821.255,987.322 822.972,986.926 824.689,986.53 826.406,986.134 828.123,985.737 829.84,985.34 831.557,984.942 833.274,984.544 834.991,984.145 836.708,983.746 838.425,983.346 840.142,982.946 841.859,982.545 843.576,982.144 845.293,981.742 847.01,981.34 848.727,980.938 850.444,980.535 852.161,980.132 853.878,979.728 855.595,979.324 857.312,978.92 859.029,978.515 860.746,978.109 862.463,977.704 864.18,977.298 865.897,976.891 867.614,976.485 869.331,976.077 871.048,975.67 872.765,975.262 874.482,974.854 876.199,974.446 877.916,974.037 879.633,973.628 881.35,973.218 883.067,972.809 884.784,972.399 886.501,971.989 888.218,971.578 889.935,971.168 891.652,970.757 893.369,970.345 895.086,969.934 896.803,969.522 898.52,969.11 900.237,968.698 901.954,968.285 903.671,967.873 905.388,967.459 907.105,967.046 908.822,966.633 910.539,966.219 912.256,965.805 913.973,965.391 915.69,964.976 917.407,964.561 919.124,964.146 920.841,963.731 922.558,963.316 924.275,962.9 925.992,962.484 927.709,962.068 929.426,961.652 931.143,961.236 932.86,960.819 934.577,960.402 936.294,959.985 938.011,959.568 939.728,959.151 941.445,958.733 943.162,958.315 944.879,957.898 946.596,957.48 948.313,957.062 950.03,956.643 951.747,956.225 953.464,955.806 955.181,955.388 956.898,954.969 958.615,954.55 960.332,954.131 962.049,953.712 963.766,953.293 965.483,952.874 967.2,952.455 968.917,952.036 970.634,951.616 972.351,951.197 974.068,950.777 975.785,950.358 977.502,949.939 979.219,949.519 980.936,949.1 982.653,948.68 984.37,948.261 986.087,947.842 987.804,947.422 989.521,947.003 991.238,946.584 992.955,946.165 994.672,945.745 996.389,945.326 998.106,944.908 999.823,944.489 1001.54,944.07 1003.26,943.652 1004.97,943.233 1006.69,942.815 1008.41,942.397 1010.12,941.979 1011.84,941.561 1013.56,941.144 1015.28,940.726 1016.99,940.309 1018.71,939.892 1020.43,939.475 1022.14,939.058 1023.86,938.642 1025.58,938.226 1027.29,937.81 1029.01,937.394 1030.73,936.978 1032.45,936.562 1034.16,936.147 1035.88,935.732 1037.6,935.317 1039.31,934.902 1041.03,934.488 1042.75,934.074 1044.46,933.66 1046.18,933.246 1047.9,932.832 1049.62,932.419 1051.33,932.006 1053.05,931.593 1054.77,931.181 1056.48,930.768 1058.2,930.356 1059.92,929.945 1061.63,929.533 1063.35,929.122 1065.07,928.711 1066.79,928.301 1068.5,927.891 1070.22,927.481 1071.94,927.071 1073.65,926.662 1075.37,926.253 1077.09,925.844 1078.8,925.436 1080.52,925.028 1082.24,924.621 1083.96,924.214 1085.67,923.807 1087.39,923.4 1089.11,922.994 1090.82,922.589 1092.54,922.184 1094.26,921.779 1095.97,921.374 1097.69,920.97 1099.41,920.567 1101.13,920.164 1102.84,919.761 1104.56,919.359 1106.28,918.957 1107.99,918.556 1109.71,918.155 1111.43,917.755 1113.14,917.355 1114.86,916.956 1116.58,916.557 1118.3,916.159 1120.01,915.762 1121.73,915.365 1123.45,914.968 1125.16,914.572 1126.88,914.177 1128.6,913.782 1130.31,913.388 1132.03,912.994 1133.75,912.601 1135.47,912.209 1137.18,911.817 1138.9,911.426 1140.62,911.036 1142.33,910.646 1144.05,910.257 1145.77,909.869 1147.48,909.481 1149.2,909.094 1150.92,908.708 1152.64,908.322 1154.35,907.937 1156.07,907.553 1157.79,907.169 1159.5,906.786 1161.22,906.404 1162.94,906.022 1164.65,905.641 1166.37,905.261 1168.09,904.882 1169.81,904.503 1171.52,904.125 1173.24,903.747 1174.96,903.37 1176.67,902.994 1178.39,902.619 1180.11,902.244 1181.82,901.87 1183.54,901.497 1185.26,901.125 1186.98,900.753 1188.69,900.382 1190.41,900.012 1192.13,899.642 1193.84,899.273 1195.56,898.905 1197.28,898.538 1198.99,898.171 1200.71,897.806 1202.43,897.441 1204.15,897.076 1205.86,896.713 1207.58,896.35 1209.3,895.988 1211.01,895.627 1212.73,895.266 1214.45,894.907 1216.16,894.548 1217.88,894.19 1219.6,893.833 1221.32,893.476 1223.03,893.121 1224.75,892.766 1226.47,892.412 1228.18,892.059 1229.9,891.707 1231.62,891.355 1233.33,891.005 1235.05,890.655 1236.77,890.306 1238.49,889.958 1240.2,889.611 1241.92,889.265 1243.64,888.919 1245.35,888.575 1247.07,888.231 1248.79,887.888 1250.5,887.547 1252.22,887.206 1253.94,886.866 1255.66,886.527 1257.37,886.188 1259.09,885.851 1260.81,885.515 1262.52,885.18 1264.24,884.845 1265.96,884.512 1267.67,884.179 1269.39,883.848 1271.11,883.518 1272.83,883.188 1274.54,882.86 1276.26,882.532 1277.98,882.206 1279.69,881.88 1281.41,881.556 1283.13,881.232 1284.84,880.91 1286.56,880.588 1288.28,880.268 1290,879.949 1291.71,879.63 1293.43,879.313 1295.15,878.997 1296.86,878.681 1298.58,878.367 1300.3,878.053 1302.01,877.741 1303.73,877.43 1305.45,877.119 1307.17,876.81 1308.88,876.501 1310.6,876.194 1312.32,875.888 1314.03,875.582 1315.75,875.278 1317.47,874.975 1319.18,874.672 1320.9,874.371 1322.62,874.07 1324.34,873.771 1326.05,873.473 1327.77,873.175 1329.49,872.879 1331.2,872.583 1332.92,872.289 1334.64,871.995 1336.35,871.703 1338.07,871.412 1339.79,871.121 1341.51,870.832 1343.22,870.543 1344.94,870.256 1346.66,869.97 1348.37,869.684 1350.09,869.4 1351.81,869.116 1353.52,868.834 1355.24,868.553 1356.96,868.272 1358.68,867.993 1360.39,867.715 1362.11,867.437 1363.83,867.161 1365.54,866.886 1367.26,866.611 1368.98,866.338 1370.69,866.066 1372.41,865.794 1374.13,865.524 1375.85,865.255 1377.56,864.987 1379.28,864.72 1381,864.454 1382.71,864.188 1384.43,863.924 1386.15,863.661 1387.86,863.399 1389.58,863.138 1391.3,862.878 1393.02,862.619 1394.73,862.362 1396.45,862.105 1398.17,861.849 1399.88,861.594 1401.6,861.341 1403.32,861.088 1405.03,860.836 1406.75,860.586 1408.47,860.336 1410.19,860.088 1411.9,859.841 1413.62,859.594 1415.34,859.349 1417.05,859.105 1418.77,858.862 1420.49,858.62 1422.2,858.379 1423.92,858.139 1425.64,857.9 1427.36,857.663 1429.07,857.426 1430.79,857.191 1432.51,856.956 1434.22,856.723 1435.94,856.49 1437.66,856.259 1439.37,856.028 1441.09,855.799 1442.81,855.571 1444.52,855.344 1446.24,855.117 1447.96,854.892 1449.68,854.668 1451.39,854.445 1453.11,854.223 1454.83,854.001 1456.54,853.781 1458.26,853.562 1459.98,853.344 1461.69,853.127 1463.41,852.911 1465.13,852.696 1466.85,852.481 1468.56,852.268 1470.28,852.056 1472,851.845 1473.71,851.635 1475.43,851.425 1477.15,851.217 1478.86,851.01 1480.58,850.804 1482.3,850.598 1484.02,850.394 1485.73,850.19 1487.45,849.988 1489.17,849.786 1490.88,849.586 1492.6,849.386 1494.32,849.188 1496.03,848.99 1497.75,848.793 1499.47,848.597 1501.19,848.403 1502.9,848.209 1504.62,848.016 1506.34,847.824 1508.05,847.633 1509.77,847.442 1511.49,847.253 1513.2,847.065 1514.92,846.878 1516.64,846.691 1518.36,846.506 1520.07,846.321 1521.79,846.137 1523.51,845.955 1525.22,845.773 1526.94,845.592 1528.66,845.412 1530.37,845.233 1532.09,845.055 1533.81,844.878 1535.53,844.701 1537.24,844.526 1538.96,844.351 1540.68,844.178 1542.39,844.005 1544.11,843.833 1545.83,843.663 1547.54,843.493 1549.26,843.324 1550.98,843.155 1552.7,842.988 1554.41,842.822 1556.13,842.656 1557.85,842.492 1559.56,842.328 1561.28,842.165 1563,842.004 1564.71,841.843 1566.43,841.683 1568.15,841.523 1569.87,841.365 1571.58,841.208 1573.3,841.051 1575.02,840.896 1576.73,840.741 1578.45,840.587 1580.17,840.434 1581.88,840.282 1583.6,840.131 1585.32,839.98 1587.04,839.831 1588.75,839.682 1590.47,839.534 1592.19,839.387 1593.9,839.24 1595.62,839.095 1597.34,838.95 1599.05,838.807 1600.77,838.664 1602.49,838.521 1604.21,838.38 1605.92,838.239 1607.64,838.1 1609.36,837.961 1611.07,837.822 1612.79,837.685 1614.51,837.548 1616.22,837.412 1617.94,837.277 1619.66,837.143 1621.38,837.009 1623.09,836.877 1624.81,836.745 1626.53,836.613 1628.24,836.483 1629.96,836.353 1631.68,836.224 1633.39,836.096 1635.11,835.968 1636.83,835.841 1638.55,835.715 1640.26,835.59 1641.98,835.466 1643.7,835.342 1645.41,835.219 1647.13,835.096 1648.85,834.974 1650.56,834.853 1652.28,834.733 1654,834.614 1655.72,834.495 1657.43,834.377 1659.15,834.259 1660.87,834.142 1662.58,834.026 1664.3,833.911 1666.02,833.796 1667.73,833.682 1669.45,833.569 1671.17,833.456 1672.89,833.345 1674.6,833.233 1676.32,833.123 1678.04,833.013 1679.75,832.904 1681.47,832.795 1683.19,832.687 1684.9,832.58 1686.62,832.473 1688.34,832.367 1690.06,832.262 1691.77,832.157 1693.49,832.053 1695.21,831.95 1696.92,831.847 1698.64,831.745 1700.36,831.644 1702.07,831.543 1703.79,831.443 1705.51,831.344 1707.23,831.245 1708.94,831.147 1710.66,831.049 1712.38,830.952 1714.09,830.856 1715.81,830.76 1717.53,830.665 1719.24,830.57 1720.96,830.477 1722.68,830.383 1724.4,830.291 1726.11,830.199 1727.83,830.107 1729.55,830.016 1731.26,829.926 1732.98,829.837 1734.7,829.747 1736.41,829.659 1738.13,829.571 1739.85,829.484 1741.57,829.397 1743.28,829.311 1745,829.225 1746.72,829.14 1748.43,829.055 1750.15,828.971 1751.87,828.888 1753.58,828.805 1755.3,828.722 1757.02,828.641 1758.74,828.559 1760.45,828.478 1762.17,828.398 1763.89,828.318 1765.6,828.239 1767.32,828.161 1769.04,828.082 1770.75,828.005 1772.47,827.928 1774.19,827.851 1775.91,827.775 1777.62,827.699 1779.34,827.624 1781.06,827.549 1782.77,827.475 1784.49,827.402 1786.21,827.329 1787.92,827.256 1789.64,827.184 1791.36,827.112 1793.08,827.041 1794.79,826.97 1796.51,826.9 1798.23,826.83 1799.94,826.761 1801.66,826.692 1803.38,826.623 1805.09,826.555 1806.81,826.488 1808.53,826.421 1810.25,826.354 1811.96,826.288 1813.68,826.222 1815.4,826.157 1817.11,826.092 1818.83,826.028 1820.55,825.964 1822.26,825.9 1823.98,825.837 1825.7,825.775 1827.42,825.712 1829.13,825.651 1830.85,825.589 1832.57,825.528 1834.28,825.468 1836,825.408 1837.72,825.348 1839.43,825.289 1841.15,825.23 1842.87,825.171 1844.59,825.113 1846.3,825.056 1848.02,824.998 1849.74,824.941 1851.45,824.885 1853.17,824.829 1854.89,824.773 1856.6,824.718 1858.32,824.663 1860.04,824.609 1861.76,824.555 1863.47,824.501 1865.19,824.448 1866.91,824.395 1868.62,824.342 1870.34,824.29 1872.06,824.238 1873.77,824.187 1875.49,824.136 1877.21,824.085 1878.93,824.034 1880.64,823.984 1882.36,823.935 1884.08,823.885 1885.79,823.837 1887.51,823.788 1889.23,823.74 1890.94,823.692 1892.66,823.644 1894.38,823.597 1896.1,823.55 1897.81,823.504 1899.53,823.457 1901.25,823.411 1902.96,823.366 1904.68,823.321 1906.4,823.276 1908.11,823.231 1909.83,823.187 1911.55,823.143 1913.26,823.099 1914.98,823.056 1916.7,823.013 1918.42,822.97 1920.13,822.928 1921.85,822.886 1923.57,822.844 1925.28,822.802 1927,822.761 1928.72,822.72 1930.43,822.68 1932.15,822.64 1933.87,822.6 1935.59,822.56 1937.3,822.52 1939.02,822.481 1940.74,822.443 1942.45,822.404 1944.17,822.366 1945.89,822.328 1947.6,822.29 1949.32,822.253 1951.04,822.215 1952.76,822.179 "
     id="polyline99" />
  <polyline
     clip-path="url(#clip532)"
     style="stroke:#3da44d; stroke-linecap:round; stroke-linejoin:round; stroke-width:8; stroke-opacity:1; fill:none"
     points="237.477,1186.07 239.194,1175.27 240.911,1165 242.628,1155.21 244.345,1145.9 246.062,1137.02 247.779,1128.56 249.496,1120.49 251.213,1112.79 252.93,1105.44 254.646,1098.43 256.363,1091.73 258.08,1085.33 259.797,1079.22 261.514,1073.38 263.231,1067.79 264.948,1062.45 266.665,1057.35 268.382,1052.46 270.099,1047.79 271.816,1043.32 273.533,1039.04 275.25,1034.94 276.967,1031.02 278.684,1027.27 280.401,1023.67 282.118,1020.23 283.835,1016.93 285.552,1013.77 287.269,1010.74 288.986,1007.84 290.703,1005.06 292.42,1002.39 294.137,999.842 295.854,997.396 297.571,995.052 299.288,992.806 301.005,990.653 302.722,988.59 304.439,986.613 306.156,984.719 307.873,982.904 309.59,981.165 311.307,979.498 313.024,977.902 314.741,976.372 316.458,974.907 318.175,973.504 319.892,972.16 321.609,970.873 323.326,969.641 325.043,968.461 326.76,967.333 328.477,966.253 330.194,965.221 331.911,964.233 333.628,963.289 335.345,962.386 337.062,961.524 338.779,960.7 340.496,959.914 342.213,959.163 343.93,958.447 345.647,957.763 347.364,957.112 349.081,956.492 350.798,955.901 352.515,955.339 354.232,954.804 355.949,954.296 357.666,953.814 359.383,953.356 361.1,952.922 362.817,952.512 364.534,952.123 366.251,951.756 367.968,951.41 369.685,951.083 371.402,950.775 373.119,950.487 374.836,950.215 376.553,949.962 378.27,949.724 379.987,949.503 381.704,949.297 383.421,949.107 385.138,948.931 386.855,948.769 388.572,948.62 390.289,948.485 392.006,948.362 393.723,948.252 395.44,948.154 397.157,948.067 398.874,947.991 400.591,947.926 402.308,947.871 404.025,947.827 405.742,947.792 407.459,947.767 409.176,947.75 410.893,947.743 412.61,947.744 414.327,947.753 416.044,947.77 417.761,947.795 419.478,947.827 421.195,947.867 422.912,947.913 424.629,947.967 426.346,948.027 428.063,948.094 429.78,948.167 431.497,948.246 433.214,948.331 434.931,948.422 436.648,948.518 438.365,948.62 440.082,948.727 441.799,948.839 443.516,948.956 445.233,949.078 446.95,949.205 448.667,949.336 450.384,949.471 452.101,949.611 453.818,949.755 455.535,949.903 457.252,950.055 458.969,950.211 460.686,950.37 462.403,950.533 464.12,950.7 465.837,950.87 467.554,951.043 469.271,951.22 470.988,951.4 472.705,951.583 474.422,951.769 476.139,951.957 477.856,952.149 479.573,952.344 481.29,952.542 483.007,952.742 484.724,952.945 486.441,953.15 488.158,953.358 489.875,953.569 491.592,953.781 493.309,953.997 495.026,954.214 496.743,954.434 498.46,954.656 500.177,954.88 501.894,955.107 503.611,955.335 505.328,955.566 507.045,955.798 508.762,956.032 510.479,956.269 512.196,956.507 513.913,956.747 515.63,956.988 517.347,957.232 519.064,957.477 520.781,957.724 522.498,957.972 524.215,958.222 525.932,958.474 527.649,958.727 529.366,958.982 531.083,959.238 532.8,959.496 534.517,959.756 536.234,960.016 537.951,960.279 539.668,960.542 541.385,960.807 543.102,961.074 544.819,961.342 546.536,961.611 548.253,961.882 549.97,962.154 551.687,962.427 553.404,962.701 555.121,962.977 556.838,963.254 558.555,963.533 560.272,963.812 561.989,964.093 563.706,964.375 565.423,964.658 567.14,964.942 568.857,965.227 570.574,965.514 572.291,965.802 574.008,966.09 575.725,966.38 577.442,966.671 579.159,966.963 580.876,967.256 582.593,967.55 584.31,967.845 586.027,968.141 587.744,968.438 589.461,968.736 591.178,969.035 592.895,969.335 594.612,969.636 596.329,969.938 598.046,970.241 599.763,970.545 601.48,970.85 603.197,971.156 604.914,971.463 606.631,971.77 608.348,972.079 610.065,972.388 611.782,972.699 613.499,973.01 615.216,973.322 616.933,973.636 618.65,973.95 620.367,974.265 622.084,974.581 623.801,974.897 625.518,975.215 627.235,975.534 628.952,975.853 630.669,976.174 632.386,976.495 634.103,976.817 635.82,977.14 637.537,977.464 639.254,977.788 640.971,978.114 642.688,978.44 644.405,978.767 646.122,979.095 647.839,979.424 649.556,979.754 651.273,980.084 652.99,980.415 654.707,980.747 656.424,981.08 658.141,981.414 659.858,981.748 661.575,982.083 663.292,982.419 665.009,982.756 666.726,983.094 668.443,983.432 670.16,983.771 671.877,984.111 673.594,984.451 675.311,984.792 677.028,985.134 678.745,985.477 680.462,985.82 682.179,986.164 683.896,986.509 685.613,986.855 687.33,987.201 689.047,987.548 690.764,987.896 692.481,988.244 694.198,988.593 695.915,988.943 697.632,989.294 699.349,989.645 701.066,989.997 702.783,990.35 704.5,990.704 706.217,991.058 707.934,991.413 709.651,991.769 711.368,992.125 713.085,992.482 714.802,992.84 716.519,993.199 718.236,993.558 719.953,993.918 721.67,994.279 723.387,994.64 725.104,995.002 726.821,995.365 728.537,995.728 730.254,996.093 731.971,996.457 733.688,996.823 735.405,997.189 737.122,997.556 738.839,997.923 740.556,998.292 742.273,998.66 743.99,999.03 745.707,999.4 747.424,999.771 749.141,1000.14 750.858,1000.51 752.575,1000.89 754.292,1001.26 756.009,1001.63 757.726,1002.01 759.443,1002.38 761.16,1002.76 762.877,1003.14 764.594,1003.51 766.311,1003.89 768.028,1004.27 769.745,1004.65 771.462,1005.03 773.179,1005.41 774.896,1005.79 776.613,1006.17 778.33,1006.55 780.047,1006.93 781.764,1007.31 783.481,1007.7 785.198,1008.08 786.915,1008.46 788.632,1008.85 790.349,1009.23 792.066,1009.62 793.783,1010 795.5,1010.39 797.217,1010.78 798.934,1011.17 800.651,1011.56 802.368,1011.94 804.085,1012.33 805.802,1012.72 807.519,1013.11 809.236,1013.51 810.953,1013.9 812.67,1014.29 814.387,1014.68 816.104,1015.08 817.821,1015.47 819.538,1015.86 821.255,1016.26 822.972,1016.65 824.689,1017.05 826.406,1017.45 828.123,1017.84 829.84,1018.24 831.557,1018.64 833.274,1019.04 834.991,1019.44 836.708,1019.84 838.425,1020.23 840.142,1020.64 841.859,1021.04 843.576,1021.44 845.293,1021.84 847.01,1022.24 848.727,1022.64 850.444,1023.05 852.161,1023.45 853.878,1023.85 855.595,1024.26 857.312,1024.66 859.029,1025.07 860.746,1025.47 862.463,1025.88 864.18,1026.28 865.897,1026.69 867.614,1027.1 869.331,1027.5 871.048,1027.91 872.765,1028.32 874.482,1028.73 876.199,1029.14 877.916,1029.54 879.633,1029.95 881.35,1030.36 883.067,1030.77 884.784,1031.18 886.501,1031.59 888.218,1032 889.935,1032.41 891.652,1032.82 893.369,1033.24 895.086,1033.65 896.803,1034.06 898.52,1034.47 900.237,1034.88 901.954,1035.3 903.671,1035.71 905.388,1036.12 907.105,1036.53 908.822,1036.95 910.539,1037.36 912.256,1037.78 913.973,1038.19 915.69,1038.6 917.407,1039.02 919.124,1039.43 920.841,1039.85 922.558,1040.27 924.275,1040.68 925.992,1041.1 927.709,1041.51 929.426,1041.93 931.143,1042.35 932.86,1042.76 934.577,1043.18 936.294,1043.6 938.011,1044.01 939.728,1044.43 941.445,1044.85 943.162,1045.27 944.879,1045.68 946.596,1046.1 948.313,1046.52 950.03,1046.94 951.747,1047.36 953.464,1047.77 955.181,1048.19 956.898,1048.61 958.615,1049.03 960.332,1049.45 962.049,1049.87 963.766,1050.29 965.483,1050.71 967.2,1051.13 968.917,1051.55 970.634,1051.96 972.351,1052.38 974.068,1052.8 975.785,1053.22 977.502,1053.64 979.219,1054.06 980.936,1054.48 982.653,1054.9 984.37,1055.32 986.087,1055.74 987.804,1056.16 989.521,1056.58 991.238,1057 992.955,1057.42 994.672,1057.84 996.389,1058.25 998.106,1058.67 999.823,1059.09 1001.54,1059.51 1003.26,1059.93 1004.97,1060.35 1006.69,1060.77 1008.41,1061.18 1010.12,1061.6 1011.84,1062.02 1013.56,1062.44 1015.28,1062.85 1016.99,1063.27 1018.71,1063.69 1020.43,1064.11 1022.14,1064.52 1023.86,1064.94 1025.58,1065.36 1027.29,1065.77 1029.01,1066.19 1030.73,1066.6 1032.45,1067.02 1034.16,1067.43 1035.88,1067.85 1037.6,1068.26 1039.31,1068.68 1041.03,1069.09 1042.75,1069.51 1044.46,1069.92 1046.18,1070.34 1047.9,1070.75 1049.62,1071.16 1051.33,1071.57 1053.05,1071.99 1054.77,1072.4 1056.48,1072.81 1058.2,1073.22 1059.92,1073.64 1061.63,1074.05 1063.35,1074.46 1065.07,1074.87 1066.79,1075.28 1068.5,1075.69 1070.22,1076.1 1071.94,1076.51 1073.65,1076.92 1075.37,1077.33 1077.09,1077.74 1078.8,1078.14 1080.52,1078.55 1082.24,1078.96 1083.96,1079.37 1085.67,1079.77 1087.39,1080.18 1089.11,1080.59 1090.82,1080.99 1092.54,1081.4 1094.26,1081.8 1095.97,1082.21 1097.69,1082.61 1099.41,1083.01 1101.13,1083.42 1102.84,1083.82 1104.56,1084.22 1106.28,1084.62 1107.99,1085.02 1109.71,1085.43 1111.43,1085.83 1113.14,1086.23 1114.86,1086.62 1116.58,1087.02 1118.3,1087.42 1120.01,1087.82 1121.73,1088.22 1123.45,1088.61 1125.16,1089.01 1126.88,1089.4 1128.6,1089.8 1130.31,1090.19 1132.03,1090.59 1133.75,1090.98 1135.47,1091.37 1137.18,1091.76 1138.9,1092.15 1140.62,1092.54 1142.33,1092.93 1144.05,1093.32 1145.77,1093.71 1147.48,1094.1 1149.2,1094.49 1150.92,1094.87 1152.64,1095.26 1154.35,1095.64 1156.07,1096.03 1157.79,1096.41 1159.5,1096.79 1161.22,1097.18 1162.94,1097.56 1164.65,1097.94 1166.37,1098.32 1168.09,1098.7 1169.81,1099.08 1171.52,1099.46 1173.24,1099.83 1174.96,1100.21 1176.67,1100.59 1178.39,1100.96 1180.11,1101.34 1181.82,1101.71 1183.54,1102.08 1185.26,1102.46 1186.98,1102.83 1188.69,1103.2 1190.41,1103.57 1192.13,1103.94 1193.84,1104.31 1195.56,1104.68 1197.28,1105.04 1198.99,1105.41 1200.71,1105.78 1202.43,1106.14 1204.15,1106.5 1205.86,1106.87 1207.58,1107.23 1209.3,1107.59 1211.01,1107.95 1212.73,1108.31 1214.45,1108.67 1216.16,1109.03 1217.88,1109.39 1219.6,1109.75 1221.32,1110.1 1223.03,1110.46 1224.75,1110.81 1226.47,1111.17 1228.18,1111.52 1229.9,1111.87 1231.62,1112.23 1233.33,1112.58 1235.05,1112.93 1236.77,1113.27 1238.49,1113.62 1240.2,1113.97 1241.92,1114.32 1243.64,1114.66 1245.35,1115.01 1247.07,1115.35 1248.79,1115.69 1250.5,1116.03 1252.22,1116.38 1253.94,1116.72 1255.66,1117.05 1257.37,1117.39 1259.09,1117.73 1260.81,1118.07 1262.52,1118.4 1264.24,1118.74 1265.96,1119.07 1267.67,1119.4 1269.39,1119.73 1271.11,1120.06 1272.83,1120.39 1274.54,1120.72 1276.26,1121.05 1277.98,1121.38 1279.69,1121.7 1281.41,1122.03 1283.13,1122.35 1284.84,1122.67 1286.56,1122.99 1288.28,1123.31 1290,1123.63 1291.71,1123.95 1293.43,1124.27 1295.15,1124.58 1296.86,1124.9 1298.58,1125.21 1300.3,1125.53 1302.01,1125.84 1303.73,1126.15 1305.45,1126.46 1307.17,1126.77 1308.88,1127.08 1310.6,1127.39 1312.32,1127.69 1314.03,1128 1315.75,1128.3 1317.47,1128.61 1319.18,1128.91 1320.9,1129.21 1322.62,1129.51 1324.34,1129.81 1326.05,1130.11 1327.77,1130.41 1329.49,1130.7 1331.2,1131 1332.92,1131.29 1334.64,1131.59 1336.35,1131.88 1338.07,1132.17 1339.79,1132.46 1341.51,1132.75 1343.22,1133.04 1344.94,1133.32 1346.66,1133.61 1348.37,1133.9 1350.09,1134.18 1351.81,1134.46 1353.52,1134.75 1355.24,1135.03 1356.96,1135.31 1358.68,1135.59 1360.39,1135.87 1362.11,1136.14 1363.83,1136.42 1365.54,1136.7 1367.26,1136.97 1368.98,1137.24 1370.69,1137.52 1372.41,1137.79 1374.13,1138.06 1375.85,1138.33 1377.56,1138.59 1379.28,1138.86 1381,1139.13 1382.71,1139.39 1384.43,1139.66 1386.15,1139.92 1387.86,1140.18 1389.58,1140.44 1391.3,1140.7 1393.02,1140.96 1394.73,1141.22 1396.45,1141.48 1398.17,1141.73 1399.88,1141.99 1401.6,1142.24 1403.32,1142.49 1405.03,1142.74 1406.75,1142.99 1408.47,1143.24 1410.19,1143.49 1411.9,1143.74 1413.62,1143.99 1415.34,1144.23 1417.05,1144.48 1418.77,1144.72 1420.49,1144.96 1422.2,1145.2 1423.92,1145.44 1425.64,1145.68 1427.36,1145.92 1429.07,1146.15 1430.79,1146.39 1432.51,1146.62 1434.22,1146.86 1435.94,1147.09 1437.66,1147.32 1439.37,1147.55 1441.09,1147.78 1442.81,1148.01 1444.52,1148.24 1446.24,1148.46 1447.96,1148.69 1449.68,1148.91 1451.39,1149.14 1453.11,1149.36 1454.83,1149.58 1456.54,1149.8 1458.26,1150.02 1459.98,1150.24 1461.69,1150.45 1463.41,1150.67 1465.13,1150.89 1466.85,1151.1 1468.56,1151.31 1470.28,1151.52 1472,1151.74 1473.71,1151.95 1475.43,1152.16 1477.15,1152.36 1478.86,1152.57 1480.58,1152.78 1482.3,1152.98 1484.02,1153.19 1485.73,1153.39 1487.45,1153.59 1489.17,1153.79 1490.88,1153.99 1492.6,1154.19 1494.32,1154.39 1496.03,1154.59 1497.75,1154.79 1499.47,1154.98 1501.19,1155.18 1502.9,1155.37 1504.62,1155.57 1506.34,1155.76 1508.05,1155.95 1509.77,1156.14 1511.49,1156.33 1513.2,1156.52 1514.92,1156.7 1516.64,1156.89 1518.36,1157.08 1520.07,1157.26 1521.79,1157.44 1523.51,1157.63 1525.22,1157.81 1526.94,1157.99 1528.66,1158.17 1530.37,1158.35 1532.09,1158.53 1533.81,1158.7 1535.53,1158.88 1537.24,1159.05 1538.96,1159.23 1540.68,1159.4 1542.39,1159.58 1544.11,1159.75 1545.83,1159.92 1547.54,1160.09 1549.26,1160.26 1550.98,1160.43 1552.7,1160.59 1554.41,1160.76 1556.13,1160.92 1557.85,1161.09 1559.56,1161.25 1561.28,1161.42 1563,1161.58 1564.71,1161.74 1566.43,1161.9 1568.15,1162.06 1569.87,1162.22 1571.58,1162.37 1573.3,1162.53 1575.02,1162.69 1576.73,1162.84 1578.45,1162.99 1580.17,1163.15 1581.88,1163.3 1583.6,1163.45 1585.32,1163.6 1587.04,1163.75 1588.75,1163.9 1590.47,1164.05 1592.19,1164.19 1593.9,1164.34 1595.62,1164.49 1597.34,1164.63 1599.05,1164.77 1600.77,1164.92 1602.49,1165.06 1604.21,1165.2 1605.92,1165.34 1607.64,1165.48 1609.36,1165.62 1611.07,1165.76 1612.79,1165.9 1614.51,1166.03 1616.22,1166.17 1617.94,1166.3 1619.66,1166.44 1621.38,1166.57 1623.09,1166.7 1624.81,1166.84 1626.53,1166.97 1628.24,1167.1 1629.96,1167.23 1631.68,1167.36 1633.39,1167.49 1635.11,1167.61 1636.83,1167.74 1638.55,1167.87 1640.26,1167.99 1641.98,1168.12 1643.7,1168.24 1645.41,1168.36 1647.13,1168.48 1648.85,1168.61 1650.56,1168.73 1652.28,1168.85 1654,1168.97 1655.72,1169.09 1657.43,1169.2 1659.15,1169.32 1660.87,1169.44 1662.58,1169.55 1664.3,1169.67 1666.02,1169.78 1667.73,1169.9 1669.45,1170.01 1671.17,1170.12 1672.89,1170.24 1674.6,1170.35 1676.32,1170.46 1678.04,1170.57 1679.75,1170.68 1681.47,1170.79 1683.19,1170.89 1684.9,1171 1686.62,1171.11 1688.34,1171.21 1690.06,1171.32 1691.77,1171.42 1693.49,1171.53 1695.21,1171.63 1696.92,1171.73 1698.64,1171.84 1700.36,1171.94 1702.07,1172.04 1703.79,1172.14 1705.51,1172.24 1707.23,1172.34 1708.94,1172.43 1710.66,1172.53 1712.38,1172.63 1714.09,1172.73 1715.81,1172.82 1717.53,1172.92 1719.24,1173.01 1720.96,1173.1 1722.68,1173.2 1724.4,1173.29 1726.11,1173.38 1727.83,1173.47 1729.55,1173.56 1731.26,1173.65 1732.98,1173.74 1734.7,1173.83 1736.41,1173.92 1738.13,1174.01 1739.85,1174.1 1741.57,1174.18 1743.28,1174.27 1745,1174.36 1746.72,1174.44 1748.43,1174.53 1750.15,1174.61 1751.87,1174.69 1753.58,1174.78 1755.3,1174.86 1757.02,1174.94 1758.74,1175.02 1760.45,1175.1 1762.17,1175.18 1763.89,1175.26 1765.6,1175.34 1767.32,1175.42 1769.04,1175.5 1770.75,1175.58 1772.47,1175.65 1774.19,1175.73 1775.91,1175.81 1777.62,1175.88 1779.34,1175.96 1781.06,1176.03 1782.77,1176.11 1784.49,1176.18 1786.21,1176.25 1787.92,1176.32 1789.64,1176.4 1791.36,1176.47 1793.08,1176.54 1794.79,1176.61 1796.51,1176.68 1798.23,1176.75 1799.94,1176.82 1801.66,1176.89 1803.38,1176.96 1805.09,1177.03 1806.81,1177.09 1808.53,1177.16 1810.25,1177.23 1811.96,1177.29 1813.68,1177.36 1815.4,1177.42 1817.11,1177.49 1818.83,1177.55 1820.55,1177.62 1822.26,1177.68 1823.98,1177.74 1825.7,1177.81 1827.42,1177.87 1829.13,1177.93 1830.85,1177.99 1832.57,1178.05 1834.28,1178.11 1836,1178.17 1837.72,1178.23 1839.43,1178.29 1841.15,1178.35 1842.87,1178.41 1844.59,1178.47 1846.3,1178.53 1848.02,1178.58 1849.74,1178.64 1851.45,1178.7 1853.17,1178.75 1854.89,1178.81 1856.6,1178.86 1858.32,1178.92 1860.04,1178.97 1861.76,1179.03 1863.47,1179.08 1865.19,1179.13 1866.91,1179.19 1868.62,1179.24 1870.34,1179.29 1872.06,1179.34 1873.77,1179.39 1875.49,1179.45 1877.21,1179.5 1878.93,1179.55 1880.64,1179.6 1882.36,1179.65 1884.08,1179.7 1885.79,1179.74 1887.51,1179.79 1889.23,1179.84 1890.94,1179.89 1892.66,1179.94 1894.38,1179.98 1896.1,1180.03 1897.81,1180.08 1899.53,1180.12 1901.25,1180.17 1902.96,1180.22 1904.68,1180.26 1906.4,1180.31 1908.11,1180.35 1909.83,1180.39 1911.55,1180.44 1913.26,1180.48 1914.98,1180.52 1916.7,1180.57 1918.42,1180.61 1920.13,1180.65 1921.85,1180.7 1923.57,1180.74 1925.28,1180.78 1927,1180.82 1928.72,1180.86 1930.43,1180.9 1932.15,1180.94 1933.87,1180.98 1935.59,1181.02 1937.3,1181.06 1939.02,1181.1 1940.74,1181.14 1942.45,1181.18 1944.17,1181.22 1945.89,1181.25 1947.6,1181.29 1949.32,1181.33 1951.04,1181.37 1952.76,1181.4 "
     id="polyline101" />
  <polyline
     clip-path="url(#clip532)"
     style="stroke:#c271d2; stroke-linecap:round; stroke-linejoin:round; stroke-width:8; stroke-opacity:1; fill:none"
     points="237.477,1186.07 239.194,1186.01 240.911,1185.85 242.628,1185.59 244.345,1185.24 246.062,1184.79 247.779,1184.25 249.496,1183.64 251.213,1182.94 252.93,1182.17 254.646,1181.33 256.363,1180.42 258.08,1179.44 259.797,1178.4 261.514,1177.3 263.231,1176.15 264.948,1174.94 266.665,1173.67 268.382,1172.36 270.099,1171 271.816,1169.59 273.533,1168.14 275.25,1166.65 276.967,1165.12 278.684,1163.55 280.401,1161.94 282.118,1160.3 283.835,1158.62 285.552,1156.91 287.269,1155.17 288.986,1153.4 290.703,1151.6 292.42,1149.78 294.137,1147.93 295.854,1146.05 297.571,1144.15 299.288,1142.23 301.005,1140.28 302.722,1138.31 304.439,1136.33 306.156,1134.32 307.873,1132.3 309.59,1130.25 311.307,1128.2 313.024,1126.12 314.741,1124.03 316.458,1121.92 318.175,1119.8 319.892,1117.67 321.609,1115.52 323.326,1113.36 325.043,1111.19 326.76,1109 328.477,1106.81 330.194,1104.6 331.911,1102.39 333.628,1100.16 335.345,1097.93 337.062,1095.68 338.779,1093.43 340.496,1091.17 342.213,1088.9 343.93,1086.63 345.647,1084.35 347.364,1082.06 349.081,1079.76 350.798,1077.46 352.515,1075.16 354.232,1072.84 355.949,1070.53 357.666,1068.2 359.383,1065.88 361.1,1063.54 362.817,1061.21 364.534,1058.87 366.251,1056.52 367.968,1054.18 369.685,1051.83 371.402,1049.47 373.119,1047.12 374.836,1044.76 376.553,1042.39 378.27,1040.03 379.987,1037.66 381.704,1035.29 383.421,1032.92 385.138,1030.55 386.855,1028.18 388.572,1025.8 390.289,1023.42 392.006,1021.04 393.723,1018.66 395.44,1016.28 397.157,1013.9 398.874,1011.52 400.591,1009.13 402.308,1006.75 404.025,1004.37 405.742,1001.98 407.459,999.596 409.176,997.21 410.893,994.824 412.61,992.439 414.327,990.053 416.044,987.668 417.761,985.283 419.478,982.898 421.195,980.513 422.912,978.129 424.629,975.745 426.346,973.362 428.063,970.98 429.78,968.598 431.497,966.217 433.214,963.837 434.931,961.458 436.648,959.08 438.365,956.702 440.082,954.326 441.799,951.951 443.516,949.577 445.233,947.204 446.95,944.832 448.667,942.462 450.384,940.093 452.101,937.725 453.818,935.359 455.535,932.994 457.252,930.631 458.969,928.269 460.686,925.909 462.403,923.55 464.12,921.194 465.837,918.838 467.554,916.485 469.271,914.133 470.988,911.783 472.705,909.435 474.422,907.089 476.139,904.745 477.856,902.403 479.573,900.062 481.29,897.724 483.007,895.387 484.724,893.052 486.441,890.72 488.158,888.389 489.875,886.061 491.592,883.735 493.309,881.411 495.026,879.089 496.743,876.769 498.46,874.451 500.177,872.136 501.894,869.823 503.611,867.512 505.328,865.204 507.045,862.898 508.762,860.594 510.479,858.292 512.196,855.993 513.913,853.696 515.63,851.402 517.347,849.11 519.064,846.821 520.781,844.534 522.498,842.249 524.215,839.967 525.932,837.688 527.649,835.411 529.366,833.137 531.083,830.865 532.8,828.596 534.517,826.329 536.234,824.065 537.951,821.804 539.668,819.545 541.385,817.289 543.102,815.035 544.819,812.785 546.536,810.537 548.253,808.291 549.97,806.048 551.687,803.808 553.404,801.571 555.121,799.337 556.838,797.105 558.555,794.876 560.272,792.65 561.989,790.426 563.706,788.206 565.423,785.988 567.14,783.773 568.857,781.561 570.574,779.352 572.291,777.146 574.008,774.942 575.725,772.742 577.442,770.544 579.159,768.349 580.876,766.157 582.593,763.968 584.31,761.783 586.027,759.6 587.744,757.42 589.461,755.243 591.178,753.069 592.895,750.898 594.612,748.73 596.329,746.565 598.046,744.403 599.763,742.244 601.48,740.089 603.197,737.936 604.914,735.786 606.631,733.64 608.348,731.496 610.065,729.356 611.782,727.218 613.499,725.084 615.216,722.953 616.933,720.825 618.65,718.7 620.367,716.579 622.084,714.46 623.801,712.345 625.518,710.233 627.235,708.124 628.952,706.018 630.669,703.915 632.386,701.816 634.103,699.72 635.82,697.627 637.537,695.537 639.254,693.45 640.971,691.367 642.688,689.287 644.405,687.21 646.122,685.137 647.839,683.067 649.556,681 651.273,678.936 652.99,676.876 654.707,674.819 656.424,672.765 658.141,670.715 659.858,668.668 661.575,666.624 663.292,664.584 665.009,662.547 666.726,660.514 668.443,658.484 670.16,656.457 671.877,654.434 673.594,652.414 675.311,650.397 677.028,648.384 678.745,646.375 680.462,644.369 682.179,642.366 683.896,640.367 685.613,638.371 687.33,636.379 689.047,634.39 690.764,632.405 692.481,630.423 694.198,628.445 695.915,626.47 697.632,624.498 699.349,622.531 701.066,620.566 702.783,618.606 704.5,616.648 706.217,614.695 707.934,612.744 709.651,610.798 711.368,608.855 713.085,606.915 714.802,604.979 716.519,603.047 718.236,601.118 719.953,599.193 721.67,597.271 723.387,595.353 725.104,593.439 726.821,591.528 728.537,589.621 730.254,587.718 731.971,585.818 733.688,583.922 735.405,582.029 737.122,580.14 738.839,578.255 740.556,576.373 742.273,574.496 743.99,572.621 745.707,570.751 747.424,568.884 749.141,567.021 750.858,565.162 752.575,563.306 754.292,561.454 756.009,559.606 757.726,557.762 759.443,555.921 761.16,554.084 762.877,552.251 764.594,550.422 766.311,548.596 768.028,546.774 769.745,544.956 771.462,543.142 773.179,541.332 774.896,539.525 776.613,537.723 778.33,535.924 780.047,534.129 781.764,532.338 783.481,530.551 785.198,528.767 786.915,526.988 788.632,525.212 790.349,523.44 792.066,521.672 793.783,519.908 795.5,518.148 797.217,516.391 798.934,514.639 800.651,512.89 802.368,511.145 804.085,509.405 805.802,507.668 807.519,505.935 809.236,504.205 810.953,502.48 812.67,500.759 814.387,499.041 816.104,497.328 817.821,495.618 819.538,493.913 821.255,492.211 822.972,490.513 824.689,488.82 826.406,487.13 828.123,485.444 829.84,483.762 831.557,482.084 833.274,480.41 834.991,478.74 836.708,477.074 838.425,475.412 840.142,473.754 841.859,472.1 843.576,470.45 845.293,468.804 847.01,467.162 848.727,465.524 850.444,463.89 852.161,462.26 853.878,460.634 855.595,459.012 857.312,457.394 859.029,455.78 860.746,454.17 862.463,452.565 864.18,450.963 865.897,449.366 867.614,447.772 869.331,446.183 871.048,444.597 872.765,443.016 874.482,441.439 876.199,439.866 877.916,438.297 879.633,436.732 881.35,435.171 883.067,433.615 884.784,432.062 886.501,430.514 888.218,428.97 889.935,427.43 891.652,425.894 893.369,424.362 895.086,422.835 896.803,421.311 898.52,419.792 900.237,418.277 901.954,416.766 903.671,415.259 905.388,413.756 907.105,412.257 908.822,410.763 910.539,409.272 912.256,407.786 913.973,406.304 915.69,404.826 917.407,403.353 919.124,401.883 920.841,400.417 922.558,398.956 924.275,397.499 925.992,396.046 927.709,394.597 929.426,393.152 931.143,391.712 932.86,390.275 934.577,388.843 936.294,387.415 938.011,385.991 939.728,384.571 941.445,383.156 943.162,381.744 944.879,380.337 946.596,378.934 948.313,377.535 950.03,376.14 951.747,374.75 953.464,373.363 955.181,371.981 956.898,370.603 958.615,369.229 960.332,367.859 962.049,366.493 963.766,365.132 965.483,363.775 967.2,362.422 968.917,361.073 970.634,359.728 972.351,358.388 974.068,357.051 975.785,355.719 977.502,354.391 979.219,353.068 980.936,351.748 982.653,350.433 984.37,349.122 986.087,347.815 987.804,346.512 989.521,345.213 991.238,343.919 992.955,342.629 994.672,341.343 996.389,340.061 998.106,338.784 999.823,337.511 1001.54,336.242 1003.26,334.977 1004.97,333.716 1006.69,332.46 1008.41,331.208 1010.12,329.96 1011.84,328.716 1013.56,327.476 1015.28,326.241 1016.99,325.01 1018.71,323.783 1020.43,322.561 1022.14,321.342 1023.86,320.128 1025.58,318.918 1027.29,317.712 1029.01,316.51 1030.73,315.312 1032.45,314.119 1034.16,312.93 1035.88,311.744 1037.6,310.564 1039.31,309.387 1041.03,308.214 1042.75,307.046 1044.46,305.881 1046.18,304.721 1047.9,303.565 1049.62,302.413 1051.33,301.265 1053.05,300.121 1054.77,298.982 1056.48,297.846 1058.2,296.715 1059.92,295.588 1061.63,294.464 1063.35,293.345 1065.07,292.23 1066.79,291.119 1068.5,290.013 1070.22,288.91 1071.94,287.811 1073.65,286.717 1075.37,285.626 1077.09,284.54 1078.8,283.457 1080.52,282.379 1082.24,281.305 1083.96,280.235 1085.67,279.169 1087.39,278.106 1089.11,277.048 1090.82,275.994 1092.54,274.944 1094.26,273.899 1095.97,272.857 1097.69,271.819 1099.41,270.785 1101.13,269.755 1102.84,268.729 1104.56,267.708 1106.28,266.69 1107.99,265.676 1109.71,264.666 1111.43,263.661 1113.14,262.659 1114.86,261.661 1116.58,260.667 1118.3,259.677 1120.01,258.692 1121.73,257.71 1123.45,256.732 1125.16,255.758 1126.88,254.788 1128.6,253.823 1130.31,252.861 1132.03,251.903 1133.75,250.949 1135.47,249.999 1137.18,249.053 1138.9,248.111 1140.62,247.172 1142.33,246.238 1144.05,245.308 1145.77,244.382 1147.48,243.459 1149.2,242.541 1150.92,241.626 1152.64,240.716 1154.35,239.809 1156.07,238.906 1157.79,238.007 1159.5,237.112 1161.22,236.22 1162.94,235.333 1164.65,234.449 1166.37,233.569 1168.09,232.693 1169.81,231.821 1171.52,230.952 1173.24,230.087 1174.96,229.227 1176.67,228.369 1178.39,227.516 1180.11,226.666 1181.82,225.82 1183.54,224.978 1185.26,224.14 1186.98,223.305 1188.69,222.474 1190.41,221.646 1192.13,220.823 1193.84,220.003 1195.56,219.186 1197.28,218.374 1198.99,217.565 1200.71,216.759 1202.43,215.958 1204.15,215.159 1205.86,214.365 1207.58,213.574 1209.3,212.787 1211.01,212.003 1212.73,211.223 1214.45,210.447 1216.16,209.674 1217.88,208.904 1219.6,208.138 1221.32,207.376 1223.03,206.617 1224.75,205.862 1226.47,205.111 1228.18,204.362 1229.9,203.618 1231.62,202.877 1233.33,202.139 1235.05,201.405 1236.77,200.674 1238.49,199.947 1240.2,199.223 1241.92,198.503 1243.64,197.786 1245.35,197.073 1247.07,196.363 1248.79,195.656 1250.5,194.953 1252.22,194.253 1253.94,193.557 1255.66,192.864 1257.37,192.175 1259.09,191.489 1260.81,190.806 1262.52,190.127 1264.24,189.451 1265.96,188.778 1267.67,188.109 1269.39,187.443 1271.11,186.78 1272.83,186.121 1274.54,185.465 1276.26,184.813 1277.98,184.163 1279.69,183.517 1281.41,182.875 1283.13,182.235 1284.84,181.599 1286.56,180.966 1288.28,180.337 1290,179.71 1291.71,179.087 1293.43,178.467 1295.15,177.85 1296.86,177.236 1298.58,176.626 1300.3,176.019 1302.01,175.415 1303.73,174.814 1305.45,174.216 1307.17,173.621 1308.88,173.029 1310.6,172.441 1312.32,171.855 1314.03,171.273 1315.75,170.693 1317.47,170.117 1319.18,169.543 1320.9,168.973 1322.62,168.406 1324.34,167.841 1326.05,167.28 1327.77,166.722 1329.49,166.166 1331.2,165.614 1332.92,165.064 1334.64,164.518 1336.35,163.974 1338.07,163.433 1339.79,162.895 1341.51,162.36 1343.22,161.828 1344.94,161.299 1346.66,160.772 1348.37,160.249 1350.09,159.728 1351.81,159.21 1353.52,158.695 1355.24,158.183 1356.96,157.673 1358.68,157.167 1360.39,156.663 1362.11,156.162 1363.83,155.663 1365.54,155.167 1367.26,154.674 1368.98,154.184 1370.69,153.697 1372.41,153.212 1374.13,152.73 1375.85,152.25 1377.56,151.774 1379.28,151.299 1381,150.828 1382.71,150.359 1384.43,149.893 1386.15,149.429 1387.86,148.969 1389.58,148.51 1391.3,148.055 1393.02,147.601 1394.73,147.151 1396.45,146.703 1398.17,146.258 1399.88,145.815 1401.6,145.375 1403.32,144.937 1405.03,144.502 1406.75,144.069 1408.47,143.639 1410.19,143.211 1411.9,142.786 1413.62,142.363 1415.34,141.943 1417.05,141.525 1418.77,141.11 1420.49,140.697 1422.2,140.287 1423.92,139.879 1425.64,139.474 1427.36,139.071 1429.07,138.67 1430.79,138.272 1432.51,137.876 1434.22,137.482 1435.94,137.091 1437.66,136.702 1439.37,136.316 1441.09,135.931 1442.81,135.549 1444.52,135.17 1446.24,134.792 1447.96,134.417 1449.68,134.045 1451.39,133.674 1453.11,133.306 1454.83,132.939 1456.54,132.576 1458.26,132.214 1459.98,131.854 1461.69,131.497 1463.41,131.142 1465.13,130.789 1466.85,130.438 1468.56,130.089 1470.28,129.742 1472,129.398 1473.71,129.055 1475.43,128.715 1477.15,128.377 1478.86,128.041 1480.58,127.707 1482.3,127.374 1484.02,127.044 1485.73,126.716 1487.45,126.391 1489.17,126.067 1490.88,125.745 1492.6,125.425 1494.32,125.107 1496.03,124.791 1497.75,124.477 1499.47,124.164 1501.19,123.854 1502.9,123.546 1504.62,123.24 1506.34,122.935 1508.05,122.633 1509.77,122.332 1511.49,122.034 1513.2,121.737 1514.92,121.442 1516.64,121.149 1518.36,120.858 1520.07,120.568 1521.79,120.281 1523.51,119.995 1525.22,119.711 1526.94,119.429 1528.66,119.148 1530.37,118.87 1532.09,118.593 1533.81,118.318 1535.53,118.045 1537.24,117.773 1538.96,117.504 1540.68,117.236 1542.39,116.97 1544.11,116.705 1545.83,116.442 1547.54,116.181 1549.26,115.922 1550.98,115.664 1552.7,115.408 1554.41,115.154 1556.13,114.901 1557.85,114.65 1559.56,114.401 1561.28,114.153 1563,113.907 1564.71,113.662 1566.43,113.42 1568.15,113.178 1569.87,112.939 1571.58,112.701 1573.3,112.465 1575.02,112.23 1576.73,111.996 1578.45,111.765 1580.17,111.535 1581.88,111.306 1583.6,111.079 1585.32,110.853 1587.04,110.629 1588.75,110.407 1590.47,110.186 1592.19,109.966 1593.9,109.748 1595.62,109.531 1597.34,109.316 1599.05,109.102 1600.77,108.89 1602.49,108.679 1604.21,108.47 1605.92,108.262 1607.64,108.055 1609.36,107.85 1611.07,107.646 1612.79,107.443 1614.51,107.242 1616.22,107.043 1617.94,106.844 1619.66,106.647 1621.38,106.451 1623.09,106.257 1624.81,106.064 1626.53,105.872 1628.24,105.682 1629.96,105.493 1631.68,105.305 1633.39,105.118 1635.11,104.933 1636.83,104.749 1638.55,104.566 1640.26,104.384 1641.98,104.204 1643.7,104.025 1645.41,103.847 1647.13,103.671 1648.85,103.495 1650.56,103.321 1652.28,103.148 1654,102.976 1655.72,102.806 1657.43,102.636 1659.15,102.468 1660.87,102.301 1662.58,102.135 1664.3,101.971 1666.02,101.807 1667.73,101.644 1669.45,101.483 1671.17,101.323 1672.89,101.164 1674.6,101.006 1676.32,100.849 1678.04,100.693 1679.75,100.538 1681.47,100.385 1683.19,100.232 1684.9,100.081 1686.62,99.9306 1688.34,99.7813 1690.06,99.633 1691.77,99.4858 1693.49,99.3397 1695.21,99.1946 1696.92,99.0505 1698.64,98.9074 1700.36,98.7654 1702.07,98.6243 1703.79,98.4843 1705.51,98.3453 1707.23,98.2073 1708.94,98.0703 1710.66,97.9343 1712.38,97.7992 1714.09,97.6651 1715.81,97.532 1717.53,97.3999 1719.24,97.2687 1720.96,97.1385 1722.68,97.0092 1724.4,96.8809 1726.11,96.7535 1727.83,96.627 1729.55,96.5014 1731.26,96.3767 1732.98,96.253 1734.7,96.1301 1736.41,96.0081 1738.13,95.887 1739.85,95.7668 1741.57,95.6475 1743.28,95.529 1745,95.4114 1746.72,95.2946 1748.43,95.1787 1750.15,95.0636 1751.87,94.9494 1753.58,94.836 1755.3,94.7235 1757.02,94.6117 1758.74,94.5008 1760.45,94.3907 1762.17,94.2814 1763.89,94.1729 1765.6,94.0652 1767.32,93.9583 1769.04,93.8521 1770.75,93.7468 1772.47,93.6422 1774.19,93.5384 1775.91,93.4353 1777.62,93.333 1779.34,93.2315 1781.06,93.1307 1782.77,93.0306 1784.49,92.9313 1786.21,92.8328 1787.92,92.7349 1789.64,92.6378 1791.36,92.5414 1793.08,92.4457 1794.79,92.3507 1796.51,92.2564 1798.23,92.1628 1799.94,92.0699 1801.66,91.9777 1803.38,91.8862 1805.09,91.7954 1806.81,91.7052 1808.53,91.6157 1810.25,91.5269 1811.96,91.4387 1813.68,91.3512 1815.4,91.2644 1817.11,91.1782 1818.83,91.0926 1820.55,91.0077 1822.26,90.9234 1823.98,90.8398 1825.7,90.7567 1827.42,90.6743 1829.13,90.5926 1830.85,90.5114 1832.57,90.4308 1834.28,90.3509 1836,90.2715 1837.72,90.1928 1839.43,90.1146 1841.15,90.0371 1842.87,89.9601 1844.59,89.8837 1846.3,89.8079 1848.02,89.7327 1849.74,89.658 1851.45,89.5839 1853.17,89.5104 1854.89,89.4374 1856.6,89.365 1858.32,89.2931 1860.04,89.2218 1861.76,89.1511 1863.47,89.0809 1865.19,89.0112 1866.91,88.942 1868.62,88.8734 1870.34,88.8053 1872.06,88.7378 1873.77,88.6707 1875.49,88.6042 1877.21,88.5382 1878.93,88.4727 1880.64,88.4077 1882.36,88.3432 1884.08,88.2792 1885.79,88.2156 1887.51,88.1526 1889.23,88.09 1890.94,88.028 1892.66,87.9664 1894.38,87.9053 1896.1,87.8446 1897.81,87.7845 1899.53,87.7247 1901.25,87.6655 1902.96,87.6067 1904.68,87.5484 1906.4,87.4905 1908.11,87.433 1909.83,87.376 1911.55,87.3195 1913.26,87.2634 1914.98,87.2077 1916.7,87.1524 1918.42,87.0976 1920.13,87.0432 1921.85,86.9893 1923.57,86.9357 1925.28,86.8826 1927,86.8298 1928.72,86.7775 1930.43,86.7256 1932.15,86.6741 1933.87,86.623 1935.59,86.5723 1937.3,86.522 1939.02,86.4721 1940.74,86.4226 1942.45,86.3735 1944.17,86.3247 1945.89,86.2764 1947.6,86.2284 1949.32,86.1808 1951.04,86.1335 1952.76,86.0867 "
     id="polyline103" />
  <path
     clip-path="url(#clip530)"
     d="m 1651.82,369.246 h 243.76 V 86.3105 h -243.76 z"
     fill="#ffffff"
     fill-rule="evenodd"
     fill-opacity="1"
     id="path105"
     transform="translate(0,48)" />
  <polyline
     clip-path="url(#clip530)"
     style="fill:none;stroke:#000000;stroke-width:4;stroke-linecap:round;stroke-linejoin:round;stroke-opacity:0"
     points="1651.82,369.246 1895.58,369.246 1895.58,86.3105 1651.82,86.3105 1651.82,369.246 "
     id="polyline107"
     transform="translate(0,48)" />
  <polyline
     clip-path="url(#clip530)"
     style="fill:none;stroke:#009af9;stroke-width:9;stroke-linecap:round;stroke-linejoin:round;stroke-opacity:1"
     points="1670.87,142.898 1785.23,142.898 "
     id="polyline109"
     transform="translate(0,48)" />
  <g
     clip-path="url(#clip530)"
     id="g113"
     transform="translate(0,48)">
    <text
       style="font-size:53px;font-family:Arial, 'Helvetica Neue', Helvetica, sans-serif;text-anchor:start;fill:#000000;fill-opacity:1"
       x="1804.28"
       y="162.39799"
       id="text111">S</text>
  </g>
  <polyline
     clip-path="url(#clip530)"
     style="fill:none;stroke:#e26f46;stroke-width:9;stroke-linecap:round;stroke-linejoin:round;stroke-opacity:1"
     points="1670.87,199.485 1785.23,199.485 "
     id="polyline115"
     transform="translate(0,48)" />
  <g
     clip-path="url(#clip530)"
     id="g119"
     transform="translate(0,48)">
    <text
       style="font-size:53px;font-family:Arial, 'Helvetica Neue', Helvetica, sans-serif;text-anchor:start;fill:#000000;fill-opacity:1"
       x="1804.28"
       y="218.985"
       id="text117">E</text>
  </g>
  <polyline
     clip-path="url(#clip530)"
     style="fill:none;stroke:#3da44d;stroke-width:9;stroke-linecap:round;stroke-linejoin:round;stroke-opacity:1"
     points="1670.87,256.072 1785.23,256.072 "
     id="polyline121"
     transform="translate(0,48)" />
  <g
     clip-path="url(#clip530)"
     id="g125"
     transform="translate(0,48)">
    <text
       style="font-size:53px;font-family:Arial, 'Helvetica Neue', Helvetica, sans-serif;text-anchor:start;fill:#000000;fill-opacity:1"
       x="1804.28"
       y="275.57199"
       id="text123">ES</text>
  </g>
  <polyline
     clip-path="url(#clip530)"
     style="fill:none;stroke:#c271d2;stroke-width:9;stroke-linecap:round;stroke-linejoin:round;stroke-opacity:1"
     points="1670.87,312.659 1785.23,312.659 "
     id="polyline127"
     transform="translate(0,48)" />
  <g
     clip-path="url(#clip530)"
     id="g131"
     transform="translate(0,48)">
    <text
       style="font-size:53px;font-family:Arial, 'Helvetica Neue', Helvetica, sans-serif;text-anchor:start;fill:#000000;fill-opacity:1"
       x="1804.28"
       y="332.159"
       id="text129">P</text>
  </g>
</svg>
